<svg xmlns="http://www.w3.org/2000/svg" xmlns:xlink="http://www.w3.org/1999/xlink" xmlns:svgjs="http://svgjs.dev/svgjs" version="1.1" width="1500" height="935" viewBox="0 0 1500 935">
	<g transform="matrix(1,0,0,1,-0.9090909090909918,147.71779965648398)">
		<svg xmlns="http://www.w3.org/2000/svg" xmlns:xlink="http://www.w3.org/1999/xlink" viewBox="0 0 396 247" data-background-color="#ffffff" preserveAspectRatio="xMidYMid meet" height="935" width="1500">
			<g id="tight-bounds" transform="matrix(1,0,0,1,0.2400000000000091,-0.09999999999999432)">
				<svg viewBox="0 0 395.52 247.2" height="247.2" width="395.52">
					<g>
						<svg />
					</g>
					<g>
						<svg viewBox="0 0 395.52 247.2" height="247.2" width="395.52">
							<g transform="matrix(1,0,0,1,75.54432,83.80413467734073)">
								<svg viewBox="0 0 244.43135999999998 79.59173064531855" height="79.59173064531855" width="244.43135999999998">
									<g>
										<svg viewBox="0 0 244.43135999999998 79.59173064531855" height="79.59173064531855" width="244.43135999999998">
											<g>
												<svg viewBox="0 0 244.43135999999998 79.59173064531855" height="79.59173064531855" width="244.43135999999998">
													<g>
														<svg viewBox="0 0 244.43135999999998 79.59173064531855" height="79.59173064531855" width="244.43135999999998">
															<g id="textblocktransform">
																<svg viewBox="0 0 244.43135999999998 79.59173064531855" height="79.59173064531855" width="244.43135999999998" id="textblock">
																	<g>
																		<svg viewBox="0 0 244.43135999999998 50.4982208578932" height="50.4982208578932" width="244.43135999999998">
																			<g transform="matrix(1,0,0,1,0,0)">
																				<svg width="244.43135999999998" viewBox="3.42 -34.38 167.31 34.580000000000005" height="50.4982208578932" data-palette-color="#000000">
																					<path d="M7.13-34.18L7.13-34.18 16.65-34.18Q18.12-34.18 19.4-33.94 20.68-33.69 21.47-32.92 22.27-32.15 22.27-30.57L22.27-30.57Q22.27-28.98 21.47-28.21 20.68-27.44 19.4-27.2 18.12-26.95 16.65-26.95L16.65-26.95 10.84-26.95 10.84-20.61 13.92-20.61Q15.38-20.61 16.66-20.4 17.94-20.19 18.74-19.42 19.53-18.65 19.53-16.99L19.53-16.99Q19.53-15.33 18.75-14.56 17.97-13.79 16.69-13.59 15.41-13.38 13.92-13.38L13.92-13.38 10.84-13.38 10.84-5.62Q10.84-4.03 10.64-2.76 10.45-1.49 9.67-0.74 8.89 0 7.13 0L7.13 0Q5.37 0 4.59-0.73 3.81-1.46 3.61-2.73 3.42-4 3.42-5.62L3.42-5.62 3.42-28.56Q3.42-30.15 3.61-31.42 3.81-32.69 4.59-33.44 5.37-34.18 7.13-34.18ZM48.68-34.38L48.68-34.38Q51.41-34.38 53.32-33.76L53.32-33.76Q55.27-33.15 56.59-32.18 57.91-31.2 58.71-29.98L58.71-29.98Q59.52-28.71 59.96-27.47L59.96-27.47Q60.37-26.2 60.51-25.02 60.64-23.85 60.64-23L60.64-23Q60.64-21.78 59.93-20.85 59.22-19.92 56.73-19.92L56.73-19.92Q55.93-19.92 54.91-20.09 53.9-20.26 53.17-20.79 52.44-21.31 52.44-22.36L52.44-22.36Q52.44-24.98 51.72-26.5 51-28.03 48.68-28.03L48.68-28.03Q47.48-28.03 46.83-27.53 46.19-27.03 45.89-26.44L45.89-26.44Q45.53-25.68 45.5-24.85L45.5-24.85 45.5-9.38Q45.53-8.37 45.89-7.5L45.89-7.5Q46.19-6.79 46.83-6.2 47.48-5.62 48.68-5.62L48.68-5.62Q50.92-5.62 51.68-7.34 52.44-9.06 52.44-11.43L52.44-11.43Q52.44-12.48 53.38-13.07 54.32-13.67 56.73-13.67L56.73-13.67Q58.93-13.67 59.79-12.92 60.64-12.16 60.64-11.23L60.64-11.23Q60.64-8.54 59.75-6.43 58.86-4.32 57.2-2.86L57.2-2.86Q53.83 0.15 48.24 0.15L48.24 0.15Q47.82 0.15 46.82 0.07L46.82 0.07Q45.84 0 44.61-0.32 43.38-0.63 42.08-1.27L42.08-1.27Q40.84-1.88 39.74-3.05L39.74-3.05Q38.69-4.2 38-5.88 37.3-7.57 37.3-10.01L37.3-10.01 37.3-23.63Q37.3-25.63 37.79-27.19 38.28-28.74 39.08-29.86L39.08-29.86Q39.86-31.01 40.89-31.76 41.91-32.52 42.99-33.03L42.99-33.03Q45.45-34.18 48.68-34.38ZM64.1-9.18L64.1-9.18 64.1-15.23Q64.1-17.5 64.71-19.04L64.71-19.04Q65.32-20.61 66.29-21.66 67.25-22.71 68.45-23.29L68.45-23.29Q69.6-23.88 70.77-24.17L70.77-24.17Q71.92-24.46 72.91-24.54 73.89-24.61 74.46-24.61L74.46-24.61Q75.02-24.61 75.99-24.54L75.99-24.54Q76.97-24.46 78.09-24.17 79.22-23.88 80.34-23.29L80.34-23.29Q81.49-22.71 82.39-21.66L82.39-21.66Q83.32-20.61 83.89-19.04 84.47-17.48 84.47-15.23L84.47-15.23 84.47-9.18Q84.47-6.96 83.88-5.37L83.88-5.37Q83.29-3.81 82.39-2.76 81.49-1.71 80.34-1.12L80.34-1.12Q79.22-0.54 78.09-0.24L78.09-0.24Q76.97 0.05 75.99 0.12 75.02 0.2 74.46 0.2L74.46 0.2Q73.92 0.2 72.92 0.12L72.92 0.12Q71.94 0.05 70.78-0.24 69.62-0.54 68.45-1.12L68.45-1.12Q67.25-1.71 66.3-2.76L66.3-2.76Q65.32-3.81 64.71-5.37 64.1-6.93 64.1-9.18ZM71.62-16.31L71.62-16.31 71.62-7.47Q71.67-6.74 71.97-6.23L71.97-6.23Q72.23-5.74 72.81-5.36 73.38-4.98 74.46-4.98L74.46-4.98Q75.48-4.98 76.03-5.36 76.58-5.74 76.85-6.23L76.85-6.23Q77.17-6.81 77.19-7.47L77.19-7.47 77.19-16.31Q77.17-16.99 76.85-17.65L76.85-17.65Q76.58-18.14 76.03-18.57 75.48-18.99 74.46-18.99L74.46-18.99Q73.38-18.99 72.81-18.57 72.23-18.14 71.97-17.65L71.97-17.65Q71.67-17.09 71.62-16.31ZM98.67-25.44L98.67-25.44 98.67-24.41 100.14-24.41Q101.65-24.41 102.65-23.89 103.65-23.36 103.65-21.39L103.65-21.39Q103.65-19.53 102.61-18.99 101.58-18.46 100.14-18.46L100.14-18.46 98.67-18.46 98.67-5.52Q98.67-3.98 98.4-2.73 98.13-1.49 97.32-0.74 96.5 0 94.81 0L94.81 0Q93.23 0 92.45-0.74 91.66-1.49 91.43-2.75 91.2-4 91.2-5.52L91.2-5.52 91.2-18.46 89.83-18.46Q88.32-18.46 87.34-18.99 86.37-19.53 86.37-21.39L86.37-21.39Q86.37-23.39 87.32-23.9 88.27-24.41 89.83-24.41L89.83-24.41 91.2-24.41Q91.2-26.56 91.4-28.38 91.59-30.2 92.35-31.47L92.35-31.47Q93.11-32.76 94.59-33.47 96.08-34.18 98.67-34.18L98.67-34.18Q100.84-34.18 102.44-33.37 104.04-32.57 104.04-30.66L104.04-30.66Q104.04-29.05 103.09-28.32 102.14-27.59 101.06-27.59L101.06-27.59Q100.7-27.59 100.38-27.76L100.38-27.76Q100.06-27.93 99.65-27.93L99.65-27.93Q98.99-27.93 98.83-27.11 98.67-26.29 98.67-25.44ZM116.98-25.44L116.98-25.44 116.98-24.41 118.44-24.41Q119.96-24.41 120.96-23.89 121.96-23.36 121.96-21.39L121.96-21.39Q121.96-19.53 120.92-18.99 119.88-18.46 118.44-18.46L118.44-18.46 116.98-18.46 116.98-5.52Q116.98-3.98 116.71-2.73 116.44-1.49 115.62-0.74 114.81 0 113.12 0L113.12 0Q111.54 0 110.75-0.74 109.97-1.49 109.74-2.75 109.51-4 109.51-5.52L109.51-5.52 109.51-18.46 108.14-18.46Q106.63-18.46 105.65-18.99 104.68-19.53 104.68-21.39L104.68-21.39Q104.68-23.39 105.63-23.9 106.58-24.41 108.14-24.41L108.14-24.41 109.51-24.41Q109.51-26.56 109.7-28.38 109.9-30.2 110.66-31.47L110.66-31.47Q111.41-32.76 112.9-33.47 114.39-34.18 116.98-34.18L116.98-34.18Q119.15-34.18 120.75-33.37 122.35-32.57 122.35-30.66L122.35-30.66Q122.35-29.05 121.4-28.32 120.45-27.59 119.37-27.59L119.37-27.59Q119.01-27.59 118.69-27.76L118.69-27.76Q118.37-27.93 117.96-27.93L117.96-27.93Q117.3-27.93 117.14-27.11 116.98-26.29 116.98-25.44ZM145.83-15.43L145.83-15.43 145.83-13.92Q145.83-12.72 145.24-11.78 144.64-10.84 142.37-10.84L142.37-10.84 132.65-10.84 132.65-8.5Q132.65-7.15 133.35-6.02 134.04-4.88 135.68-4.88L135.68-4.88Q136.97-4.88 137.56-5.31 138.14-5.74 138.56-6.42L138.56-6.42Q138.83-6.84 139.22-7.15L139.22-7.15Q139.63-7.5 140.34-7.73 141.05-7.96 142.32-7.96L142.32-7.96Q143.64-7.96 144.57-7.46 145.49-6.96 145.49-5.52L145.49-5.52Q145.49-3.93 144.49-2.87 143.49-1.81 141.98-1.17L141.98-1.17Q140.46-0.54 138.69-0.27 136.92 0 135.39 0L135.39 0Q133.36-0.02 131.53-0.51 129.7-1 128.31-2.08L128.31-2.08Q126.89-3.15 126.06-4.88 125.23-6.62 125.23-9.13L125.23-9.13 125.23-14.84Q125.23-17.14 125.79-18.77L125.79-18.77Q126.35-20.39 127.22-21.46 128.09-22.53 129.18-23.14L129.18-23.14Q130.28-23.73 131.41-24.02L131.41-24.02Q132.53-24.32 133.54-24.39 134.56-24.46 135.29-24.46L135.29-24.46Q137.75-24.46 139.51-24.02L139.51-24.02Q141.24-23.58 142.42-22.88 143.59-22.17 144.27-21.24L144.27-21.24Q144.98-20.34 145.3-19.34L145.3-19.34Q145.64-18.36 145.74-17.33 145.83-16.31 145.83-15.43ZM132.65-16.21L132.65-16.21 132.65-14.5 138.75-14.5Q138.75-16.09 138.6-17.15 138.44-18.21 137.77-18.75 137.09-19.29 135.53-19.29L135.53-19.29Q133.75-19.29 133.2-18.32 132.65-17.36 132.65-16.21ZM170.73-15.43L170.73-15.43 170.73-13.92Q170.73-12.72 170.14-11.78 169.54-10.84 167.27-10.84L167.27-10.84 157.55-10.84 157.55-8.5Q157.55-7.15 158.25-6.02 158.94-4.88 160.58-4.88L160.58-4.88Q161.87-4.88 162.46-5.31 163.04-5.74 163.46-6.42L163.46-6.42Q163.73-6.84 164.12-7.15L164.12-7.15Q164.53-7.5 165.24-7.73 165.95-7.96 167.22-7.96L167.22-7.96Q168.54-7.96 169.46-7.46 170.39-6.96 170.39-5.52L170.39-5.52Q170.39-3.93 169.39-2.87 168.39-1.81 166.88-1.17L166.88-1.17Q165.36-0.54 163.59-0.27 161.82 0 160.29 0L160.29 0Q158.26-0.02 156.43-0.51 154.6-1 153.21-2.08L153.21-2.08Q151.79-3.15 150.96-4.88 150.13-6.62 150.13-9.13L150.13-9.13 150.13-14.84Q150.13-17.14 150.69-18.77L150.69-18.77Q151.25-20.39 152.12-21.46 152.99-22.53 154.08-23.14L154.08-23.14Q155.18-23.73 156.31-24.02L156.31-24.02Q157.43-24.32 158.44-24.39 159.46-24.46 160.19-24.46L160.19-24.46Q162.65-24.46 164.41-24.02L164.41-24.02Q166.14-23.58 167.32-22.88 168.49-22.17 169.17-21.24L169.17-21.24Q169.88-20.34 170.2-19.34L170.2-19.34Q170.54-18.36 170.64-17.33 170.73-16.31 170.73-15.43ZM157.55-16.21L157.55-16.21 157.55-14.5 163.65-14.5Q163.65-16.09 163.5-17.15 163.34-18.21 162.67-18.75 161.99-19.29 160.43-19.29L160.43-19.29Q158.65-19.29 158.1-18.32 157.55-17.36 157.55-16.21Z" opacity="1" transform="matrix(1,0,0,1,0,0)" fill="#000000" class="wordmark-text-0" data-fill-palette-color="primary" id="text-0" />
																				</svg>
																			</g>
																		</svg>
																	</g>
																	<g transform="matrix(1,0,0,1,0,62.41963884514119)">
																		<svg viewBox="0 0 244.43135999999998 17.172091800177355" height="17.172091800177355" width="244.43135999999998">
																			<g transform="matrix(1,0,0,1,0,0)">
																				<svg width="244.43135999999998" viewBox="2.44 -34.16 495.56 34.81999999999999" height="17.172091800177355" data-palette-color="#61777f">
																					<path d="M2.44-33.54L16.09-33.54 16.09-30.69 6.88-30.69Q6.74-27.81 6.68-24.9 6.62-22 6.59-19.31L6.59-19.31 15.41-19.31 15.41-16.46 6.59-16.46Q6.59-14.6 6.62-12.56 6.64-10.52 6.69-8.41 6.74-6.3 6.81-4.16 6.88-2.03 7.01 0L7.01 0 2.44 0Q2.59-2.08 2.67-4.26 2.76-6.45 2.81-8.61 2.86-10.77 2.88-12.84 2.91-14.92 2.91-16.8L2.91-16.8Q2.91-18.68 2.88-20.75 2.86-22.83 2.81-24.98 2.76-27.12 2.67-29.3 2.59-31.47 2.44-33.54L2.44-33.54ZM19.58-33.54L27.54-33.54Q31.67-33.54 33.92-31.13 36.18-28.71 36.18-23.8L36.18-23.8Q36.18-20.63 35.08-18.57 33.98-16.5 31.84-15.41L31.84-15.41Q32.37-13.31 33.18-10.84L33.18-10.84Q33.89-8.72 34.95-5.93 36.01-3.15 37.55 0L37.55 0 32.4 0Q31.3-3.64 30.58-6.34 29.86-9.03 29.44-10.86L29.44-10.86Q28.96-12.99 28.69-14.5L28.69-14.5 23.73-14.5Q23.73-12.79 23.77-10.97 23.8-9.16 23.85-7.31 23.9-5.47 23.97-3.61 24.05-1.76 24.15 0L24.15 0 19.58 0Q19.73-2.08 19.81-4.26 19.9-6.45 19.95-8.61 20-10.77 20.02-12.84 20.04-14.92 20.04-16.8L20.04-16.8Q20.04-18.68 20.02-20.75 20-22.83 19.95-24.98 19.9-27.12 19.81-29.3 19.73-31.47 19.58-33.54L19.58-33.54ZM27.29-30.81L24.02-30.81Q23.85-27.32 23.79-23.82 23.73-20.31 23.73-17.21L23.73-17.21 27.29-17.21Q28.39-17.21 29.25-17.55 30.1-17.9 30.7-18.68 31.3-19.46 31.62-20.72 31.93-21.97 31.93-23.8L31.93-23.8Q31.93-27.51 30.77-29.16 29.61-30.81 27.29-30.81L27.29-30.81ZM40.23-33.54L54.39-33.54 54.39-30.69 44.68-30.69Q44.53-27.88 44.47-25.09 44.41-22.29 44.38-19.65L44.38-19.65 53.69-19.65 53.69-16.8 44.38-16.8Q44.38-13.65 44.43-10.05 44.48-6.45 44.65-2.86L44.65-2.86 54.54-2.86 54.54 0 40.23 0Q40.38-2.08 40.47-4.26 40.55-6.45 40.6-8.61 40.65-10.77 40.67-12.84 40.7-14.92 40.7-16.8L40.7-16.8Q40.7-18.68 40.67-20.75 40.65-22.83 40.6-24.98 40.55-27.12 40.47-29.3 40.38-31.47 40.23-33.54L40.23-33.54ZM64.55-2.1L64.55-2.1Q65.53-2.1 66.47-2.4 67.41-2.71 68.14-3.39 68.87-4.08 69.31-5.14 69.75-6.2 69.75-7.74L69.75-7.74Q69.75-9.06 69.23-10.18 68.7-11.3 67.85-12.33 66.99-13.35 65.89-14.32 64.79-15.28 63.65-16.26 62.5-17.24 61.4-18.27 60.3-19.31 59.45-20.47 58.59-21.63 58.07-22.97 57.54-24.32 57.54-25.9L57.54-25.9Q57.54-28.22 58.4-29.81 59.25-31.4 60.57-32.36 61.89-33.33 63.49-33.74 65.09-34.16 66.6-34.16L66.6-34.16Q68.19-34.16 69.67-33.9 71.14-33.64 72.51-33.35L72.51-33.35 72.51-28.49Q71.73-29.15 71.03-29.69 70.34-30.22 69.64-30.6 68.95-30.98 68.21-31.19 67.48-31.4 66.65-31.4L66.65-31.4Q65.63-31.4 64.71-31.12 63.79-30.83 63.12-30.25 62.45-29.66 62.05-28.76 61.65-27.86 61.65-26.61L61.65-26.61Q61.65-24.88 62.55-23.45 63.45-22.02 64.82-20.73 66.19-19.43 67.77-18.14 69.36-16.85 70.73-15.36 72.09-13.87 73-12.1 73.9-10.33 73.9-8.06L73.9-8.06Q73.9-6.35 73.51-5.04 73.12-3.74 72.45-2.77 71.78-1.81 70.9-1.15 70.02-0.49 69.02-0.09 68.02 0.32 66.96 0.49 65.89 0.66 64.89 0.66L64.89 0.66Q63.7 0.66 62.7 0.57 61.69 0.49 60.83 0.33 59.96 0.17 59.22-0.04 58.47-0.24 57.76-0.49L57.76-0.49 57.76-5.49Q58.52-4.79 59.28-4.16 60.03-3.54 60.85-3.08 61.67-2.61 62.57-2.36 63.48-2.1 64.55-2.1ZM91.33-33.54L95.92-33.54Q95.8-31.47 95.72-29.3 95.63-27.12 95.58-24.98 95.53-22.83 95.51-20.75 95.48-18.68 95.48-16.8L95.48-16.8Q95.48-14.92 95.51-12.84 95.53-10.77 95.57-8.61 95.61-6.45 95.68-4.26 95.75-2.08 95.87 0L95.87 0 91.33 0Q91.46-2.08 91.54-4.26 91.63-6.45 91.67-8.61 91.72-10.77 91.75-12.84 91.77-14.92 91.77-16.8L91.77-16.8 81.71-16.8Q81.71-14.92 81.74-12.84 81.76-10.77 81.81-8.61 81.86-6.45 81.93-4.26 82.01-2.08 82.13 0L82.13 0 77.56 0Q77.71-2.08 77.8-4.26 77.88-6.45 77.93-8.61 77.98-10.77 78-12.84 78.03-14.92 78.03-16.8L78.03-16.8Q78.03-18.68 78-20.75 77.98-22.83 77.93-24.98 77.88-27.12 77.8-29.3 77.71-31.47 77.56-33.54L77.56-33.54 82.18-33.54Q81.93-30.13 81.85-26.55 81.76-22.97 81.71-19.65L81.71-19.65 91.75-19.65Q91.72-22.97 91.63-26.55 91.53-30.13 91.33-33.54L91.33-33.54ZM114.06-16.75L114.06-16.75Q114.06-13.23 114.62-10.53 115.19-7.84 116.22-6.01 117.26-4.17 118.71-3.23 120.17-2.29 121.95-2.29L121.95-2.29Q123.02-2.29 123.85-2.56 124.68-2.83 125.35-3.23 126.03-3.64 126.61-4.14 127.2-4.64 127.76-5.1L127.76-5.1 127.76-0.2Q126.39 0.15 125.01 0.35 123.63 0.56 121.95 0.56L121.95 0.56Q119.34 0.56 117.11-0.49 114.89-1.54 113.27-3.67 111.65-5.81 110.73-9.07 109.81-12.33 109.81-16.75L109.81-16.75Q109.81-21.17 110.78-24.43 111.74-27.69 113.39-29.82 115.04-31.96 117.25-33.01 119.46-34.06 121.95-34.06L121.95-34.06Q123.63-34.06 125.01-33.85 126.39-33.64 127.76-33.3L127.76-33.3 127.76-28.39Q127.2-28.86 126.61-29.36 126.03-29.86 125.35-30.26 124.68-30.66 123.85-30.93 123.02-31.2 121.95-31.2L121.95-31.2Q120.17-31.2 118.71-30.26 117.26-29.32 116.22-27.49 115.19-25.66 114.62-22.96 114.06-20.26 114.06-16.75ZM151.76-16.75L151.76-16.75Q151.76-12.23 150.95-8.95 150.15-5.66 148.72-3.53 147.29-1.39 145.36-0.37 143.43 0.66 141.21 0.66L141.21 0.66Q138.96 0.66 137.04-0.37 135.11-1.39 133.68-3.53 132.25-5.66 131.43-8.95 130.62-12.23 130.62-16.75L130.62-16.75Q130.62-21.24 131.43-24.52 132.25-27.81 133.68-29.96 135.11-32.1 137.04-33.13 138.96-34.16 141.21-34.16L141.21-34.16Q143.43-34.16 145.36-33.13 147.29-32.1 148.72-29.96 150.15-27.81 150.95-24.52 151.76-21.24 151.76-16.75ZM147.56-16.75L147.56-16.75Q147.56-20.51 147.07-23.24 146.58-25.98 145.73-27.75 144.87-29.52 143.71-30.36 142.55-31.2 141.21-31.2L141.21-31.2Q139.84-31.2 138.68-30.36 137.52-29.52 136.66-27.75 135.79-25.98 135.3-23.24 134.81-20.51 134.81-16.75L134.81-16.75Q134.81-12.96 135.3-10.23 135.79-7.5 136.66-5.74 137.52-3.98 138.68-3.14 139.84-2.29 141.21-2.29L141.21-2.29Q142.55-2.29 143.71-3.14 144.87-3.98 145.73-5.74 146.58-7.5 147.07-10.23 147.56-12.96 147.56-16.75ZM155.86-33.54L169.51-33.54 169.51-30.69 160.3-30.69Q160.16-27.81 160.1-24.9 160.03-22 160.01-19.31L160.01-19.31 168.82-19.31 168.82-16.46 160.01-16.46Q160.01-14.6 160.03-12.56 160.06-10.52 160.11-8.41 160.16-6.3 160.23-4.16 160.3-2.03 160.42 0L160.42 0 155.86 0Q156.01-2.08 156.09-4.26 156.18-6.45 156.23-8.61 156.27-10.77 156.3-12.84 156.32-14.92 156.32-16.8L156.32-16.8Q156.32-18.68 156.3-20.75 156.27-22.83 156.23-24.98 156.18-27.12 156.09-29.3 156.01-31.47 155.86-33.54L155.86-33.54ZM173-33.54L186.65-33.54 186.65-30.69 177.44-30.69Q177.29-27.81 177.23-24.9 177.17-22 177.15-19.31L177.15-19.31 185.96-19.31 185.96-16.46 177.15-16.46Q177.15-14.6 177.17-12.56 177.2-10.52 177.25-8.41 177.29-6.3 177.37-4.16 177.44-2.03 177.56 0L177.56 0 173 0Q173.14-2.08 173.23-4.26 173.32-6.45 173.36-8.61 173.41-10.77 173.44-12.84 173.46-14.92 173.46-16.8L173.46-16.8Q173.46-18.68 173.44-20.75 173.41-22.83 173.36-24.98 173.32-27.12 173.23-29.3 173.14-31.47 173-33.54L173-33.54ZM190.14-33.54L204.3-33.54 204.3-30.69 194.58-30.69Q194.43-27.88 194.37-25.09 194.31-22.29 194.29-19.65L194.29-19.65 203.59-19.65 203.59-16.8 194.29-16.8Q194.29-13.65 194.34-10.05 194.38-6.45 194.56-2.86L194.56-2.86 204.44-2.86 204.44 0 190.14 0Q190.28-2.08 190.37-4.26 190.45-6.45 190.5-8.61 190.55-10.77 190.58-12.84 190.6-14.92 190.6-16.8L190.6-16.8Q190.6-18.68 190.58-20.75 190.55-22.83 190.5-24.98 190.45-27.12 190.37-29.3 190.28-31.47 190.14-33.54L190.14-33.54ZM208.79-33.54L222.95-33.54 222.95-30.69 213.23-30.69Q213.09-27.88 213.02-25.09 212.96-22.29 212.94-19.65L212.94-19.65 222.24-19.65 222.24-16.8 212.94-16.8Q212.94-13.65 212.99-10.05 213.04-6.45 213.21-2.86L213.21-2.86 223.1-2.86 223.1 0 208.79 0Q208.94-2.08 209.02-4.26 209.11-6.45 209.16-8.61 209.2-10.77 209.23-12.84 209.25-14.92 209.25-16.8L209.25-16.8Q209.25-18.68 209.23-20.75 209.2-22.83 209.16-24.98 209.11-27.12 209.02-29.3 208.94-31.47 208.79-33.54L208.79-33.54ZM237.35-33.54L241.97-33.54Q241.82-31.47 241.74-29.3 241.65-27.12 241.6-24.98 241.55-22.83 241.53-20.75 241.5-18.68 241.5-16.8L241.5-16.8Q241.5-14.92 241.53-12.84 241.55-10.77 241.6-8.61 241.65-6.45 241.72-4.26 241.8-2.08 241.92 0L241.92 0 237.35 0Q237.5-2.08 237.59-4.26 237.67-6.45 237.72-8.61 237.77-10.77 237.79-12.84 237.82-14.92 237.82-16.8L237.82-16.8Q237.82-18.68 237.79-20.75 237.77-22.83 237.72-24.98 237.67-27.12 237.59-29.3 237.5-31.47 237.35-33.54L237.35-33.54ZM260.82-33.54L265.33-33.54Q265.19-31.47 265.1-29.3 265.01-27.12 264.97-24.98 264.92-22.83 264.89-20.75 264.87-18.68 264.87-16.8L264.87-16.8Q264.87-14.92 264.89-12.84 264.92-10.77 264.97-8.61 265.01-6.45 265.09-4.26 265.16-2.08 265.28 0L265.28 0 260.77 0Q259.52-3.59 258.33-6.84 257.13-10.08 255.94-13.12 254.76-16.16 253.59-19.06 252.42-21.95 251.25-24.8L251.25-24.8 251.07-24.8Q251.03-22.68 251.04-20.67 251.05-18.65 251.05-16.8L251.05-16.8Q251.05-14.92 251.07-12.84 251.1-10.77 251.15-8.61 251.2-6.45 251.27-4.26 251.34-2.08 251.46 0L251.46 0 247 0Q247.14-2.08 247.23-4.26 247.31-6.45 247.36-8.61 247.41-10.77 247.44-12.84 247.46-14.92 247.46-16.8L247.46-16.8Q247.46-18.68 247.44-20.75 247.41-22.83 247.36-24.98 247.31-27.12 247.23-29.3 247.14-31.47 247-33.54L247-33.54 251.56-33.54Q254.03-26.37 256.4-20 258.76-13.62 261.13-7.91L261.13-7.91 261.3-7.91Q261.33-8.98 261.33-10.16 261.33-11.33 261.32-12.49 261.3-13.65 261.29-14.75 261.28-15.84 261.28-16.8L261.28-16.8Q261.28-18.68 261.25-20.75 261.23-22.83 261.18-24.98 261.13-27.12 261.05-29.3 260.96-31.47 260.82-33.54L260.82-33.54ZM277.91-30.69L277.91-33.54 294.63-33.54 294.63-30.69 288.4-30.69Q288.21-27.1 288.16-23.51 288.11-19.92 288.11-16.8L288.11-16.8Q288.11-14.92 288.13-12.84 288.16-10.77 288.21-8.61 288.26-6.45 288.33-4.26 288.4-2.08 288.53 0L288.53 0 283.96 0Q284.11-2.08 284.19-4.26 284.28-6.45 284.33-8.61 284.38-10.77 284.4-12.84 284.42-14.92 284.42-16.8L284.42-16.8Q284.42-19.92 284.36-23.51 284.3-27.1 284.13-30.69L284.13-30.69 277.91-30.69ZM311.21-33.54L315.8-33.54Q315.67-31.47 315.59-29.3 315.5-27.12 315.45-24.98 315.41-22.83 315.38-20.75 315.36-18.68 315.36-16.8L315.36-16.8Q315.36-14.92 315.38-12.84 315.41-10.77 315.44-8.61 315.48-6.45 315.55-4.26 315.63-2.08 315.75 0L315.75 0 311.21 0Q311.33-2.08 311.41-4.26 311.5-6.45 311.55-8.61 311.6-10.77 311.62-12.84 311.65-14.92 311.65-16.8L311.65-16.8 301.59-16.8Q301.59-14.92 301.61-12.84 301.64-10.77 301.68-8.61 301.73-6.45 301.81-4.26 301.88-2.08 302 0L302 0 297.44 0Q297.58-2.08 297.67-4.26 297.75-6.45 297.8-8.61 297.85-10.77 297.88-12.84 297.9-14.92 297.9-16.8L297.9-16.8Q297.9-18.68 297.88-20.75 297.85-22.83 297.8-24.98 297.75-27.12 297.67-29.3 297.58-31.47 297.44-33.54L297.44-33.54 302.05-33.54Q301.81-30.13 301.72-26.55 301.64-22.97 301.59-19.65L301.59-19.65 311.62-19.65Q311.6-22.97 311.5-26.55 311.4-30.13 311.21-33.54L311.21-33.54ZM320.7-33.54L334.86-33.54 334.86-30.69 325.15-30.69Q325-27.88 324.94-25.09 324.88-22.29 324.85-19.65L324.85-19.65 334.16-19.65 334.16-16.8 324.85-16.8Q324.85-13.65 324.9-10.05 324.95-6.45 325.12-2.86L325.12-2.86 335.01-2.86 335.01 0 320.7 0Q320.85-2.08 320.94-4.26 321.02-6.45 321.07-8.61 321.12-10.77 321.14-12.84 321.17-14.92 321.17-16.8L321.17-16.8Q321.17-18.68 321.14-20.75 321.12-22.83 321.07-24.98 321.02-27.12 320.94-29.3 320.85-31.47 320.7-33.54L320.7-33.54ZM362.92 0L359.47 0Q358.89-3.03 358.24-6.35 357.59-9.67 356.85-13.09 356.1-16.5 355.26-19.92 354.42-23.34 353.47-26.56L353.47-26.56 353.22-26.56Q353.17-25.51 353.16-24.19 353.15-22.88 353.15-21.55 353.15-20.21 353.16-18.97 353.17-17.72 353.17-16.8L353.17-16.8Q353.17-14.92 353.2-12.84 353.22-10.77 353.27-8.61 353.32-6.45 353.39-4.26 353.47-2.08 353.59 0L353.59 0 349.12 0Q349.27-2.08 349.35-4.26 349.44-6.45 349.49-8.61 349.54-10.77 349.56-12.84 349.58-14.92 349.58-16.8L349.58-16.8Q349.58-18.68 349.56-20.75 349.54-22.83 349.49-24.98 349.44-27.12 349.35-29.3 349.27-31.47 349.12-33.54L349.12-33.54 354.91-33.54Q356.35-26.59 357.82-20.23 359.3-13.87 361.04-8.18L361.04-8.18 361.35-8.18Q363.09-13.87 364.56-20.23 366.04-26.59 367.48-33.54L367.48-33.54 373.27-33.54Q373.12-31.47 373.03-29.3 372.95-27.12 372.9-24.98 372.85-22.83 372.83-20.75 372.8-18.68 372.8-16.8L372.8-16.8Q372.8-14.92 372.83-12.84 372.85-10.77 372.9-8.61 372.95-6.45 373.03-4.26 373.12-2.08 373.27 0L373.27 0 368.8 0Q368.92-2.08 368.99-4.26 369.07-6.45 369.12-8.61 369.17-10.77 369.19-12.84 369.21-14.92 369.21-16.8L369.21-16.8Q369.21-17.72 369.21-18.97 369.21-20.21 369.21-21.55 369.21-22.88 369.2-24.19 369.19-25.51 369.17-26.56L369.17-26.56 368.92-26.56Q367.97-23.34 367.13-19.92 366.28-16.5 365.54-13.09 364.79-9.67 364.15-6.35 363.5-3.03 362.92 0L362.92 0ZM398.51-16.75L398.51-16.75Q398.51-12.23 397.71-8.95 396.9-5.66 395.47-3.53 394.04-1.39 392.11-0.37 390.19 0.66 387.96 0.66L387.96 0.66Q385.72 0.66 383.79-0.37 381.86-1.39 380.43-3.53 379-5.66 378.19-8.95 377.37-12.23 377.37-16.75L377.37-16.75Q377.37-21.24 378.19-24.52 379-27.81 380.43-29.96 381.86-32.1 383.79-33.13 385.72-34.16 387.96-34.16L387.96-34.16Q390.19-34.16 392.11-33.13 394.04-32.1 395.47-29.96 396.9-27.81 397.71-24.52 398.51-21.24 398.51-16.75ZM394.31-16.75L394.31-16.75Q394.31-20.51 393.82-23.24 393.33-25.98 392.48-27.75 391.63-29.52 390.47-30.36 389.31-31.2 387.96-31.2L387.96-31.2Q386.6-31.2 385.44-30.36 384.28-29.52 383.41-27.75 382.54-25.98 382.06-23.24 381.57-20.51 381.57-16.75L381.57-16.75Q381.57-12.96 382.06-10.23 382.54-7.5 383.41-5.74 384.28-3.98 385.44-3.14 386.6-2.29 387.96-2.29L387.96-2.29Q389.31-2.29 390.47-3.14 391.63-3.98 392.48-5.74 393.33-7.5 393.82-10.23 394.31-12.96 394.31-16.75ZM402.61-33.54L410.57-33.54Q414.7-33.54 416.96-31.13 419.21-28.71 419.21-23.8L419.21-23.8Q419.21-20.63 418.12-18.57 417.02-16.5 414.87-15.41L414.87-15.41Q415.41-13.31 416.21-10.84L416.21-10.84Q416.92-8.72 417.98-5.93 419.04-3.15 420.58 0L420.58 0 415.43 0Q414.33-3.64 413.61-6.34 412.89-9.03 412.48-10.86L412.48-10.86Q411.99-12.99 411.72-14.5L411.72-14.5 406.76-14.5Q406.76-12.79 406.8-10.97 406.84-9.16 406.88-7.31 406.93-5.47 407.01-3.61 407.08-1.76 407.18 0L407.18 0 402.61 0Q402.76-2.08 402.84-4.26 402.93-6.45 402.98-8.61 403.03-10.77 403.05-12.84 403.08-14.92 403.08-16.8L403.08-16.8Q403.08-18.68 403.05-20.75 403.03-22.83 402.98-24.98 402.93-27.12 402.84-29.3 402.76-31.47 402.61-33.54L402.61-33.54ZM410.33-30.81L407.06-30.81Q406.88-27.32 406.82-23.82 406.76-20.31 406.76-17.21L406.76-17.21 410.33-17.21Q411.43-17.21 412.28-17.55 413.13-17.9 413.73-18.68 414.33-19.46 414.65-20.72 414.97-21.97 414.97-23.8L414.97-23.8Q414.97-27.51 413.81-29.16 412.65-30.81 410.33-30.81L410.33-30.81ZM437.08-33.54L441.6-33.54Q441.46-31.47 441.37-29.3 441.28-27.12 441.24-24.98 441.19-22.83 441.16-20.75 441.14-18.68 441.14-16.8L441.14-16.8Q441.14-14.92 441.16-12.84 441.19-10.77 441.24-8.61 441.28-6.45 441.36-4.26 441.43-2.08 441.55 0L441.55 0 437.04 0Q435.79-3.59 434.59-6.84 433.4-10.08 432.21-13.12 431.03-16.16 429.86-19.06 428.69-21.95 427.51-24.8L427.51-24.8 427.34-24.8Q427.29-22.68 427.31-20.67 427.32-18.65 427.32-16.8L427.32-16.8Q427.32-14.92 427.34-12.84 427.37-10.77 427.42-8.61 427.47-6.45 427.54-4.26 427.61-2.08 427.73 0L427.73 0 423.27 0Q423.41-2.08 423.5-4.26 423.58-6.45 423.63-8.61 423.68-10.77 423.71-12.84 423.73-14.92 423.73-16.8L423.73-16.8Q423.73-18.68 423.71-20.75 423.68-22.83 423.63-24.98 423.58-27.12 423.5-29.3 423.41-31.47 423.27-33.54L423.27-33.54 427.83-33.54Q430.3-26.37 432.67-20 435.03-13.62 437.4-7.91L437.4-7.91 437.57-7.91Q437.6-8.98 437.6-10.16 437.6-11.33 437.59-12.49 437.57-13.65 437.56-14.75 437.55-15.84 437.55-16.8L437.55-16.8Q437.55-18.68 437.52-20.75 437.5-22.83 437.45-24.98 437.4-27.12 437.32-29.3 437.23-31.47 437.08-33.54L437.08-33.54ZM446.63-33.54L451.25-33.54Q451.1-31.47 451.01-29.3 450.93-27.12 450.88-24.98 450.83-22.83 450.81-20.75 450.78-18.68 450.78-16.8L450.78-16.8Q450.78-14.92 450.81-12.84 450.83-10.77 450.88-8.61 450.93-6.45 451-4.26 451.07-2.08 451.2 0L451.2 0 446.63 0Q446.78-2.08 446.86-4.26 446.95-6.45 447-8.61 447.05-10.77 447.07-12.84 447.09-14.92 447.09-16.8L447.09-16.8Q447.09-18.68 447.07-20.75 447.05-22.83 447-24.98 446.95-27.12 446.86-29.3 446.78-31.47 446.63-33.54L446.63-33.54ZM470.09-33.54L474.61-33.54Q474.46-31.47 474.38-29.3 474.29-27.12 474.24-24.98 474.19-22.83 474.17-20.75 474.15-18.68 474.15-16.8L474.15-16.8Q474.15-14.92 474.17-12.84 474.19-10.77 474.24-8.61 474.29-6.45 474.37-4.26 474.44-2.08 474.56 0L474.56 0 470.04 0Q468.8-3.59 467.6-6.84 466.41-10.08 465.22-13.12 464.04-16.16 462.87-19.06 461.69-21.95 460.52-24.8L460.52-24.8 460.35-24.8Q460.3-22.68 460.31-20.67 460.33-18.65 460.33-16.8L460.33-16.8Q460.33-14.92 460.35-12.84 460.38-10.77 460.42-8.61 460.47-6.45 460.55-4.26 460.62-2.08 460.74 0L460.74 0 456.27 0Q456.42-2.08 456.51-4.26 456.59-6.45 456.64-8.61 456.69-10.77 456.71-12.84 456.74-14.92 456.74-16.8L456.74-16.8Q456.74-18.68 456.71-20.75 456.69-22.83 456.64-24.98 456.59-27.12 456.51-29.3 456.42-31.47 456.27-33.54L456.27-33.54 460.84-33.54Q463.31-26.37 465.67-20 468.04-13.62 470.41-7.91L470.41-7.91 470.58-7.91Q470.61-8.98 470.61-10.16 470.61-11.33 470.59-12.49 470.58-13.65 470.57-14.75 470.56-15.84 470.56-16.8L470.56-16.8Q470.56-18.68 470.53-20.75 470.51-22.83 470.46-24.98 470.41-27.12 470.32-29.3 470.24-31.47 470.09-33.54L470.09-33.54ZM489.11-13.67L489.11-16.5 498-16.5Q497.9-14.5 497.86-12.57 497.83-10.64 497.83-8.89L497.83-8.89Q497.83-7.13 497.84-5.68 497.85-4.22 497.9-3.17L497.9-3.17Q497.95-1.93 498-0.95L498-0.95Q496.75-0.32 494.97 0.12 493.19 0.56 490.65 0.56L490.65 0.56Q488.11 0.56 485.94-0.49 483.76-1.54 482.15-3.67 480.54-5.81 479.63-9.07 478.71-12.33 478.71-16.75L478.71-16.75Q478.71-21.17 479.68-24.43 480.64-27.69 482.3-29.82 483.96-31.96 486.17-33.01 488.38-34.06 490.87-34.06L490.87-34.06Q491.89-34.06 492.72-33.97 493.55-33.89 494.27-33.74 495-33.59 495.63-33.37 496.26-33.15 496.88-32.91L496.88-32.91 496.88-27.98Q495.29-29.76 493.88-30.48 492.48-31.2 490.84-31.2L490.84-31.2Q488.96-31.2 487.5-30.16 486.04-29.13 485.02-27.22 484.01-25.32 483.48-22.67 482.96-20.02 482.96-16.8L482.96-16.8Q482.96-13.67 483.45-11.02 483.94-8.37 484.91-6.43 485.89-4.49 487.37-3.39 488.84-2.29 490.82-2.29L490.82-2.29Q491.67-2.29 492.32-2.43 492.97-2.56 493.6-2.91L493.6-2.91Q493.63-3.44 493.65-4.15L493.65-4.15Q493.68-4.76 493.7-5.63 493.73-6.49 493.73-7.64L493.73-7.64Q493.73-8.89 493.69-10.4 493.65-11.91 493.55-13.67L493.55-13.67 489.11-13.67Z" opacity="1" transform="matrix(1,0,0,1,0,0)" fill="#61777f" class="slogan-text-1" data-fill-palette-color="secondary" id="text-1" />
																				</svg>
																			</g>
																		</svg>
																	</g>
																</svg>
															</g>
														</svg>
													</g>
													<g />
												</svg>
											</g>
										</svg>
									</g>
								</svg>
							</g>
							<g>
								<path d="M87.026 71.883A122.216 122.216 0 0 1 308.494 71.883L303.94 71.883A117.662 117.662 0 0 0 91.58 71.883L87.026 71.883M87.026 175.317A122.216 122.216 0 0 0 308.494 175.317L303.94 175.317A117.662 117.662 0 0 1 91.58 175.317L87.026 175.317" fill="#000000" stroke="transparent" data-fill-palette-color="tertiary" />
							</g>
						</svg>
					</g>
					<defs />
				</svg>
				<rect width="395.52" height="247.2" fill="none" stroke="none" visibility="hidden" />
			</g>
		</svg>
	</g>
</svg>
